<svg xmlns="http://www.w3.org/2000/svg" version="1.1" xmlns:xlink="http://www.w3.org/1999/xlink" xmlns:svgjs="http://svgjs.dev/svgjs" viewBox="0 0 800 800"><defs><filter id="bbburst-blur-1" x="-100%" y="-100%" width="400%" height="400%"><feGaussianBlur in="SourceGraphic" stdDeviation="1"></feGaussianBlur></filter><filter id="bbburst-blur-2" x="-100%" y="-100%" width="400%" height="400%"><feGaussianBlur in="SourceGraphic" stdDeviation="2"></feGaussianBlur></filter><filter id="bbburst-blur-3" x="-100%" y="-100%" width="400%" height="400%"><feGaussianBlur in="SourceGraphic" stdDeviation="4"></feGaussianBlur></filter><filter id="bbburst-blur-4" x="-100%" y="-100%" width="400%" height="400%"><feGaussianBlur in="SourceGraphic" stdDeviation="12"></feGaussianBlur></filter><symbol id="bbburst-shape-1" viewBox="0 0 194 167"><path d="m97 0 96.129 166.5H.871L97 0Z"></path></symbol><symbol id="bbburst-shape-3" viewBox="0 0 131 127"><path d="m66 0 66 63.5L66 127 0 63.5 66 0Z"></path></symbol><symbol id="bbburst-shape-5" viewBox="0 0 145 145"><circle cx="72.5" cy="72.5" r="72.5"></circle></symbol><symbol id="bbburst-shape-10" viewBox="0 0 145 145"><circle cx="72.5" cy="72.5" r="61.5" fill="none" stroke-width="22"></circle></symbol><symbol id="bbburst-shape-14" viewBox="0 0 185 109"><path d="M168 16.5C168 58.1975 134.197 92 92.5 92 50.8025 92 17 58.1975 17 16.5" stroke-width="33" stroke-linecap="round"></path></symbol></defs><use xlink:href="#bbburst-shape-10" width="39.14039686909803" opacity="0.025570658828674264" transform="matrix(1.3906405003841866,1.0623648143134348,-1.0623648143134348,1.3906405003841866,1158.334438431395,72.43520427296755)" fill="none" stroke="rgba(65, 135, 63, 0.50)" filter="url(#bbburst-blur-4)"></use><use xlink:href="#bbburst-shape-14" width="29.65949692333821" opacity="0.4646709440709982" transform="matrix(0.9038943371601205,-0.4277558032918624,0.4277558032918624,0.9038943371601205,306.7770429576116,267.7620547805841)" fill="none" stroke="rgba(65, 135, 63, 0.50)" filter="url(#bbburst-blur-2)"></use><use xlink:href="#bbburst-shape-14" width="36.65963846637146" opacity="0.4465733866163527" transform="matrix(0.845986672295101,0.5332040419005293,-0.5332040419005293,0.845986672295101,824.2354929473706,-51.69035270484267)" fill="none" stroke="rgba(65, 135, 63, 0.50)" filter="url(#bbburst-blur-2)"></use><use xlink:href="#bbburst-shape-3" width="21.734863152427003" opacity="0.6206777606429592" transform="matrix(0.9925530780107659,0.12181291939426835,-0.12181291939426835,0.9925530780107659,463.64010272075876,170.38129405821087)" fill="rgba(65, 135, 63, 0.50)" filter="url(#bbburst-blur-1)"></use><use xlink:href="#bbburst-shape-5" width="22.681008702489724" opacity="0.6416920772494275" transform="matrix(0.9870051157408098,-0.16068883440199155,0.16068883440199155,0.9870051157408098,479.6666199977909,50.96248368676481)" fill="rgba(65, 135, 63, 0.50)" filter="url(#bbburst-blur-1)"></use><use xlink:href="#bbburst-shape-3" width="30.793452189618264" opacity="0.29461539558135375" transform="matrix(1.2381868239369396,-0.17144500292791826,0.17144500292791826,1.2381868239369396,451.41996161491784,192.65457950275976)" fill="rgba(65, 135, 63, 0.50)" filter="url(#bbburst-blur-3)"></use><use xlink:href="#bbburst-shape-3" width="14.21211629224358" opacity="0.8067010510456221" transform="matrix(0.7214838689339893,0.692431243422798,-0.692431243422798,0.7214838689339893,635.1811093237154,185.34642303222427)" fill="rgba(65, 135, 63, 0.50)"></use><use xlink:href="#bbburst-shape-10" width="23.647867041390178" opacity="0.5885388657318111" transform="matrix(0.7784616543619941,-0.62769216395299,0.62769216395299,0.7784616543619941,238.98436139406908,252.33691762364407)" fill="none" stroke="rgba(65, 135, 63, 0.50)" filter="url(#bbburst-blur-1)"></use><use xlink:href="#bbburst-shape-10" width="32.36143722130438" opacity="0.07636197535578049" transform="matrix(1.7025360755010017,0.40480972273112154,-0.40480972273112154,1.7025360755010017,748.5597541613133,-643.7658596392607)" fill="none" stroke="rgba(65, 135, 63, 0.50)" filter="url(#bbburst-blur-4)"></use><use xlink:href="#bbburst-shape-5" width="15.095751615538827" opacity="0.7928014645537766" transform="matrix(0.831975177773047,-0.5548128545460234,0.5548128545460234,0.831975177773047,144.17946942438212,-17.65826093820982)" fill="rgba(65, 135, 63, 0.50)"></use><use xlink:href="#bbburst-shape-3" width="23.642556121428868" opacity="0.7942556087430985" transform="matrix(0.990831820164653,0.1351010886307018,-0.1351010886307018,0.990831820164653,463.81484584383486,-87.97766067570501)" fill="rgba(65, 135, 63, 0.50)"></use><use xlink:href="#bbburst-shape-5" width="29.30179754662198" opacity="0.528429564180556" transform="matrix(0.9933134180496327,0.11544892170373672,-0.11544892170373672,0.9933134180496327,275.5170854730445,-142.75785309907099)" fill="rgba(65, 135, 63, 0.50)" filter="url(#bbburst-blur-2)"></use><use xlink:href="#bbburst-shape-14" width="22.577947831035765" opacity="0.6689742493036201" transform="matrix(0.9742691358814232,0.22538777888089895,-0.22538777888089895,0.9742691358814232,484.22124483455946,-141.09754519481848)" fill="none" stroke="rgba(65, 135, 63, 0.50)" filter="url(#bbburst-blur-1)"></use><use xlink:href="#bbburst-shape-14" width="28.965694164559473" opacity="0.5709309219640184" transform="matrix(0.9995623345009913,-0.02958275590489206,0.02958275590489206,0.9995623345009913,275.65190781341266,-165.69598560685583)" fill="none" stroke="rgba(65, 135, 63, 0.50)" filter="url(#bbburst-blur-1)"></use><use xlink:href="#bbburst-shape-3" width="38.712893674116614" opacity="0.35475809287734683" transform="matrix(0.8456821439706043,-0.5336869038764979,0.5336869038764979,0.8456821439706043,-115.14471316410908,17.518075470987753)" fill="rgba(65, 135, 63, 0.50)" filter="url(#bbburst-blur-2)"></use><use xlink:href="#bbburst-shape-1" width="38.34987823413371" opacity="0.25109443693319544" transform="matrix(1.122135147271584,0.5507383328385456,-0.5507383328385456,1.122135147271584,411.5755038445588,220.88964690258206)" fill="rgba(65, 135, 63, 0.50)" filter="url(#bbburst-blur-3)"></use><use xlink:href="#bbburst-shape-10" width="38.89858800808655" opacity="0.2090121255912628" transform="matrix(1.2254196325894575,0.2466712874744825,-0.2466712874744825,1.2254196325894575,208.16571574226933,140.79722447695553)" fill="none" stroke="rgba(65, 135, 63, 0.50)" filter="url(#bbburst-blur-3)"></use><use xlink:href="#bbburst-shape-14" width="34.87042659701373" opacity="0.47189180027646205" transform="matrix(0.7230170884614306,-0.6908301453995445,0.6908301453995445,0.7230170884614306,-106.57041458877634,27.484024625095515)" fill="none" stroke="rgba(65, 135, 63, 0.50)" filter="url(#bbburst-blur-2)"></use><use xlink:href="#bbburst-shape-10" width="17.173582267553588" opacity="0.7465152647144129" transform="matrix(0.8360207937892865,-0.5486977604765043,0.5486977604765043,0.8360207937892865,274.9429805144106,122.15697981539171)" fill="none" stroke="rgba(65, 135, 63, 0.50)" filter="url(#bbburst-blur-1)"></use><use xlink:href="#bbburst-shape-3" width="35.0758503841233" opacity="0.33293837134603277" transform="matrix(1.0164310852580571,-0.7275766962466075,0.7275766962466075,1.0164310852580571,291.3001924169781,229.8681786196007)" fill="rgba(65, 135, 63, 0.50)" filter="url(#bbburst-blur-3)"></use><use xlink:href="#bbburst-shape-5" width="33.5058687206381" opacity="0.38828417180770947" transform="matrix(0.9321142018213358,0.3621644857837031,-0.3621644857837031,0.9321142018213358,803.5873328836453,-1.5810708221384289)" fill="rgba(65, 135, 63, 0.50)" filter="url(#bbburst-blur-2)"></use><use xlink:href="#bbburst-shape-3" width="33.39118757668879" opacity="0.548749395878396" transform="matrix(0.9423008518627171,0.33476723940493,-0.33476723940493,0.9423008518627171,663.8321689977383,-123.91468494451851)" fill="rgba(65, 135, 63, 0.50)" filter="url(#bbburst-blur-2)"></use><use xlink:href="#bbburst-shape-1" width="15.879522303408748" opacity="0.6906808294483944" transform="matrix(0.978076741749352,0.2082447772429635,-0.2082447772429635,0.978076741749352,543.4439881976866,-114.36419935745204)" fill="rgba(65, 135, 63, 0.50)" filter="url(#bbburst-blur-1)"></use><use xlink:href="#bbburst-shape-14" width="17.31427959302997" opacity="0.7787618441473421" transform="matrix(0.8456945980154983,0.5336671686429705,-0.5336671686429705,0.8456945980154983,532.9457106895032,124.61444072369608)" fill="none" stroke="rgba(65, 135, 63, 0.50)"></use><use xlink:href="#bbburst-shape-14" width="32.9409824686829" opacity="0.22563752045767838" transform="matrix(1.057279657030928,0.6668281089070581,-0.6668281089070581,1.057279657030928,467.2679419206879,-330.9931595793061)" fill="none" stroke="rgba(65, 135, 63, 0.50)" filter="url(#bbburst-blur-3)"></use><use xlink:href="#bbburst-shape-3" width="35.59275769133622" opacity="0.4928683727810036" transform="matrix(0.9893163151582105,-0.14578487082609232,0.14578487082609232,0.9893163151582105,267.9214214084796,-214.33788261156843)" fill="rgba(65, 135, 63, 0.50)" filter="url(#bbburst-blur-2)"></use><use xlink:href="#bbburst-shape-10" width="20.17910973856163" opacity="0.6947785480143895" transform="matrix(0.9789465158707278,-0.20411692498311595,0.20411692498311595,0.9789465158707278,214.42638825630942,-89.61700526498913)" fill="none" stroke="rgba(65, 135, 63, 0.50)" filter="url(#bbburst-blur-1)"></use><use xlink:href="#bbburst-shape-5" width="37.839328696545614" opacity="0.14992994996698084" transform="matrix(1.2469458882825613,0.08732669520378272,-0.08732669520378272,1.2469458882825613,52.14176191332344,31.128498565667144)" fill="rgba(65, 135, 63, 0.50)" filter="url(#bbburst-blur-3)"></use><use xlink:href="#bbburst-shape-14" width="36.517491440418894" opacity="0.04245640092849545" transform="matrix(1.4714305333235005,-0.9473078621036137,0.9473078621036137,1.4714305333235005,-362.0198144253591,71.15406278307239)" fill="none" stroke="rgba(65, 135, 63, 0.50)" filter="url(#bbburst-blur-4)"></use><use xlink:href="#bbburst-shape-3" width="16.919867959911493" opacity="0.8751007058832568" transform="matrix(0.9721985534148847,-0.234158008058673,0.234158008058673,0.9721985534148847,264.35039981307114,-31.865031662574893)" fill="rgba(65, 135, 63, 0.50)"></use><use xlink:href="#bbburst-shape-10" width="16.589703402762957" opacity="0.8196709329489933" transform="matrix(0.998032147788297,-0.06270432186922255,0.06270432186922255,0.998032147788297,447.19198123983716,11.122961741785161)" fill="none" stroke="rgba(65, 135, 63, 0.50)"></use><use xlink:href="#bbburst-shape-14" width="12.606434029073785" opacity="0.8037485786443067" transform="matrix(0.9957674427862047,-0.09190864968555755,0.09190864968555755,0.9957674427862047,270.77983093264544,21.57442161165119)" fill="none" stroke="rgba(65, 135, 63, 0.50)"></use><use xlink:href="#bbburst-shape-5" width="13.27176945195371" opacity="0.8975873677586144" transform="matrix(0.9268120401247966,0.3755255547625388,-0.3755255547625388,0.9268120401247966,534.1442934794702,71.78955882169004)" fill="rgba(65, 135, 63, 0.50)"></use><use xlink:href="#bbburst-shape-5" width="13.231048661461738" opacity="0.9549716936056512" transform="matrix(0.8434662507698149,0.5371821700431911,-0.5371821700431911,0.8434662507698149,595.6479508228648,44.08000328068408)" fill="rgba(65, 135, 63, 0.50)"></use><use xlink:href="#bbburst-shape-10" width="34.94469986476552" opacity="0.3176391382821401" transform="matrix(1.198275328312664,0.35585985662501673,-0.35585985662501673,1.198275328312664,548.8876268815093,220.30240732816816)" fill="none" stroke="rgba(65, 135, 63, 0.50)" filter="url(#bbburst-blur-3)"></use><use xlink:href="#bbburst-shape-1" width="13.912302752471604" opacity="0.7702297082987603" transform="matrix(0.7305500091094794,-0.6828591979245352,0.6828591979245352,0.7305500091094794,192.28467933278938,36.90650061354978)" fill="rgba(65, 135, 63, 0.50)" filter="url(#bbburst-blur-1)"></use><use xlink:href="#bbburst-shape-10" width="19.401017004215674" opacity="0.7149990590207489" transform="matrix(0.9925690561587389,-0.12168265593810088,0.12168265593810088,0.9925690561587389,417.0213965330505,107.95370258222351)" fill="none" stroke="rgba(65, 135, 63, 0.50)" filter="url(#bbburst-blur-1)"></use><use xlink:href="#bbburst-shape-5" width="41.45896048499788" opacity="0.22368878527124825" transform="matrix(1.2078462295793182,-0.3218811670337754,0.3218811670337754,1.2078462295793182,593.6349853768379,-39.94223031542572)" fill="rgba(65, 135, 63, 0.50)" filter="url(#bbburst-blur-3)"></use><use xlink:href="#bbburst-shape-10" width="34.49546068158348" opacity="0.26495889413276297" transform="matrix(1.1303952005813969,0.5335791323717067,-0.5335791323717067,1.1303952005813969,894.1785255706014,-200.14711290099376)" fill="none" stroke="rgba(65, 135, 63, 0.50)" filter="url(#bbburst-blur-3)"></use><use xlink:href="#bbburst-shape-14" width="37.376689034035486" opacity="0.18866927728973726" transform="matrix(1.238718621066737,0.1675594754781767,-0.1675594754781767,1.238718621066737,723.7854301400337,135.84103385773597)" fill="none" stroke="rgba(65, 135, 63, 0.50)" filter="url(#bbburst-blur-3)"></use><use xlink:href="#bbburst-shape-14" width="30.165415124747774" opacity="0.5572858887116037" transform="matrix(0.7394661154661084,-0.6731937789949222,0.6731937789949222,0.7394661154661084,-78.20101638645093,90.62389118135707)" fill="none" stroke="rgba(65, 135, 63, 0.50)" filter="url(#bbburst-blur-1)"></use><use xlink:href="#bbburst-shape-14" width="25.03836546484712" opacity="0.3975206333740159" transform="matrix(0.9985566186128013,-0.05370921172916575,0.05370921172916575,0.9985566186128013,217.48413277161808,-225.52412215133148)" fill="none" stroke="rgba(65, 135, 63, 0.50)" filter="url(#bbburst-blur-2)"></use><use xlink:href="#bbburst-shape-10" width="31.054357684434777" opacity="0.20592942627284283" transform="matrix(1.1242671032815328,-0.546373023198393,0.546373023198393,1.1242671032815328,281.3424855394394,-378.73665652180995)" fill="none" stroke="rgba(65, 135, 63, 0.50)" filter="url(#bbburst-blur-3)"></use><use xlink:href="#bbburst-shape-3" width="35.63187897221559" opacity="0.4059616008083843" transform="matrix(0.9992934546413835,0.03758445836897411,-0.03758445836897411,0.9992934546413835,319.937236624137,255.54790080557922)" fill="rgba(65, 135, 63, 0.50)" filter="url(#bbburst-blur-2)"></use><use xlink:href="#bbburst-shape-14" width="15.679801135438542" opacity="0.9606975644599713" transform="matrix(0.7473422601864322,0.664439271972567,-0.664439271972567,0.7473422601864322,668.6095458679908,111.26414196560256)" fill="none" stroke="rgba(65, 135, 63, 0.50)"></use><use xlink:href="#bbburst-shape-14" width="31.399228639423278" opacity="0.5691624225742636" transform="matrix(0.9477775380003981,0.31893218473823554,-0.31893218473823554,0.9477775380003981,589.7715166151218,-161.96860186871507)" fill="none" stroke="rgba(65, 135, 63, 0.50)" filter="url(#bbburst-blur-1)"></use><use xlink:href="#bbburst-shape-10" width="32.5400054294189" opacity="0.18797192398177853" transform="matrix(0.9856530440365406,0.7687574889271007,-0.7687574889271007,0.9856530440365406,695.5296618557416,-372.1589451934745)" fill="none" stroke="rgba(65, 135, 63, 0.50)" filter="url(#bbburst-blur-3)"></use><use xlink:href="#bbburst-shape-1" width="42.99271667307212" opacity="0.07591794760972548" transform="matrix(1.7347549436777827,-0.23048923051954742,0.23048923051954742,1.7347549436777827,625.6292401422858,-505.23548200257835)" fill="rgba(65, 135, 63, 0.50)" filter="url(#bbburst-blur-4)"></use><use xlink:href="#bbburst-shape-14" width="27.726341435382675" opacity="0.48059310527301324" transform="matrix(0.9617578241811059,0.27390123699323615,-0.27390123699323615,0.9617578241811059,675.4296017936151,161.5827358048429)" fill="none" stroke="rgba(65, 135, 63, 0.50)" filter="url(#bbburst-blur-2)"></use><use xlink:href="#bbburst-shape-10" width="31.43803954408526" opacity="0.18869963272659962" transform="matrix(1.2220548732987027,-0.2628343330824413,0.2628343330824413,1.2220548732987027,246.25609632318552,279.2089486858344)" fill="none" stroke="rgba(65, 135, 63, 0.50)" filter="url(#bbburst-blur-3)"></use><use xlink:href="#bbburst-shape-1" width="16.563875346837847" opacity="0.8194755852779081" transform="matrix(0.7168175608435309,0.6972607722124707,-0.6972607722124707,0.7168175608435309,731.2018292985051,164.13809500399185)" fill="rgba(65, 135, 63, 0.50)"></use><use xlink:href="#bbburst-shape-5" width="25.574253088124237" opacity="0.4555184047313102" transform="matrix(0.8225459273473177,-0.5686986877111122,0.5686986877111122,0.8225459273473177,-81.06696582561997,109.08260704667958)" fill="rgba(65, 135, 63, 0.50)" filter="url(#bbburst-blur-2)"></use><use xlink:href="#bbburst-shape-1" width="20.133114253431348" opacity="0.5593597911565418" transform="matrix(0.7098737792362634,-0.704328912904209,0.704328912904209,0.7098737792362634,-11.500051268718437,278.9711576983552)" fill="rgba(65, 135, 63, 0.50)" filter="url(#bbburst-blur-1)"></use><use xlink:href="#bbburst-shape-3" width="21.22624343793847" opacity="0.5568785151210256" transform="matrix(0.8052191615201071,-0.592977319904274,0.592977319904274,0.8052191615201071,353.58835863086847,81.86776339109315)" fill="rgba(65, 135, 63, 0.50)" filter="url(#bbburst-blur-1)"></use><use xlink:href="#bbburst-shape-14" width="19.37025025491829" opacity="0.7184983459074248" transform="matrix(0.8214080766548995,-0.570340925768175,0.570340925768175,0.8214080766548995,49.589891029662226,131.522570744321)" fill="none" stroke="rgba(65, 135, 63, 0.50)" filter="url(#bbburst-blur-1)"></use><use xlink:href="#bbburst-shape-14" width="33.33167621332855" opacity="0.20261346552244608" transform="matrix(1.0462667801950174,-0.6839779416475001,0.6839779416475001,1.0462667801950174,-4.182133499344445,333.44470853574836)" fill="none" stroke="rgba(65, 135, 63, 0.50)" filter="url(#bbburst-blur-3)"></use><use xlink:href="#bbburst-shape-3" width="20.219287990837007" opacity="0.793003981716825" transform="matrix(0.910993025499728,-0.4124217592354359,0.4124217592354359,0.910993025499728,312.84123905292194,6.760012906919542)" fill="rgba(65, 135, 63, 0.50)"></use><use xlink:href="#bbburst-shape-14" width="25.502192297390618" opacity="0.30557618778071927" transform="matrix(1.0484545017403593,0.680619686594779,-0.680619686594779,1.0484545017403593,349.9249495144994,19.011585583731176)" fill="none" stroke="rgba(65, 135, 63, 0.50)" filter="url(#bbburst-blur-3)"></use><use xlink:href="#bbburst-shape-3" width="28.336144147750765" opacity="0.18675948813254806" transform="matrix(1.1410445579197444,0.5104089701814958,-0.5104089701814958,1.1410445579197444,221.93989202498048,-59.48572126772052)" fill="rgba(65, 135, 63, 0.50)" filter="url(#bbburst-blur-3)"></use><use xlink:href="#bbburst-shape-1" width="20.011788477040565" opacity="0.7064598424474935" transform="matrix(0.9212883897432949,-0.3888800623896869,0.3888800623896869,0.9212883897432949,108.66637744602608,-2.386445607536473)" fill="rgba(65, 135, 63, 0.50)" filter="url(#bbburst-blur-1)"></use><use xlink:href="#bbburst-shape-14" width="26.86768725997437" opacity="0.5831733067959288" transform="matrix(0.9314890601560539,-0.3637693373686014,0.3637693373686014,0.9314890601560539,419.31182735984055,-28.838156817823005)" fill="none" stroke="rgba(65, 135, 63, 0.50)" filter="url(#bbburst-blur-1)"></use><use xlink:href="#bbburst-shape-5" width="36.342710546006444" opacity="0.16031752929702725" transform="matrix(1.2296088600387853,-0.22486007051968737,0.22486007051968737,1.2296088600387853,-74.76893112704333,-194.4502730330928)" fill="rgba(65, 135, 63, 0.50)" filter="url(#bbburst-blur-3)"></use><use xlink:href="#bbburst-shape-3" width="35.10488056533774" opacity="0.1811418594294405" transform="matrix(1.023121947785424,-0.7181375076959566,0.7181375076959566,1.023121947785424,455.7656633014032,-69.87723163634524)" fill="rgba(65, 135, 63, 0.50)" filter="url(#bbburst-blur-3)"></use><use xlink:href="#bbburst-shape-3" width="16.526393971451903" opacity="0.8665760673796923" transform="matrix(0.7767326083579652,0.629830497128737,-0.629830497128737,0.7767326083579652,690.8746551588765,44.78369852618357)" fill="rgba(65, 135, 63, 0.50)"></use><use xlink:href="#bbburst-shape-14" width="31.02484641348476" opacity="0.16223005203768504" transform="matrix(1.2409827254351524,0.1498728633593853,-0.1498728633593853,1.2409827254351524,541.0458189250373,264.7284570917885)" fill="none" stroke="rgba(65, 135, 63, 0.50)" filter="url(#bbburst-blur-3)"></use><use xlink:href="#bbburst-shape-3" width="23.664981030509082" opacity="0.7078605766661894" transform="matrix(0.9917170045592293,-0.1284421382104391,0.1284421382104391,0.9917170045592293,467.85798566915497,-5.451742178184588)" fill="rgba(65, 135, 63, 0.50)" filter="url(#bbburst-blur-1)"></use><use xlink:href="#bbburst-shape-14" width="33.66029840217779" opacity="0.4814602038898441" transform="matrix(0.8775582479073528,0.4794700423694655,-0.4794700423694655,0.8775582479073528,580.8252727321624,274.25856369916744)" fill="none" stroke="rgba(65, 135, 63, 0.50)" filter="url(#bbburst-blur-2)"></use><use xlink:href="#bbburst-shape-10" width="27.33786539773245" opacity="0.6156531291342826" transform="matrix(0.7132799844642483,-0.7008792076832367,0.7008792076832367,0.7132799844642483,-33.282922737024705,221.28829615014922)" fill="none" stroke="rgba(65, 135, 63, 0.50)" filter="url(#bbburst-blur-1)"></use><use xlink:href="#bbburst-shape-14" width="23.68426781365676" opacity="0.6232877795060252" transform="matrix(0.9988074578056585,0.04882276345924826,-0.04882276345924826,0.9988074578056585,258.46541380978977,-80.4830098919739)" fill="none" stroke="rgba(65, 135, 63, 0.50)" filter="url(#bbburst-blur-1)"></use><use xlink:href="#bbburst-shape-5" width="12.43225747943858" opacity="0.8872284158369695" transform="matrix(0.9003089723978516,0.4352513690040785,-0.4352513690040785,0.9003089723978516,572.8240265462438,-13.392184704956321)" fill="rgba(65, 135, 63, 0.50)"></use><use xlink:href="#bbburst-shape-14" width="52.83177622240899" opacity="-0.07464691948034652" transform="matrix(1.7372561511815436,0.21081049590067702,-0.21081049590067702,1.7372561511815436,779.6601933337056,-643.0045922367188)" fill="none" stroke="rgba(65, 135, 63, 0.50)" filter="url(#bbburst-blur-4)"></use><use xlink:href="#bbburst-shape-1" width="13.508856241801155" opacity="0.934793807275988" transform="matrix(0.9972555312324123,0.07403651414240947,-0.07403651414240947,0.9972555312324123,397.8299764873262,15.899886676063488)" fill="rgba(65, 135, 63, 0.50)"></use><use xlink:href="#bbburst-shape-3" width="41.8418178777097" opacity="0.04362791208390482" transform="matrix(1.7475039145398696,-0.09343483647886387,0.09343483647886387,1.7475039145398696,-33.378660985651756,-534.1304240792747)" fill="rgba(65, 135, 63, 0.50)" filter="url(#bbburst-blur-4)"></use><use xlink:href="#bbburst-shape-10" width="19.59968001750501" opacity="0.7463457270404237" transform="matrix(0.8896292115133174,-0.45668355129366445,0.45668355129366445,0.8896292115133174,237.3704917903144,159.08499820303717)" fill="none" stroke="rgba(65, 135, 63, 0.50)" filter="url(#bbburst-blur-1)"></use><use xlink:href="#bbburst-shape-3" width="17.258598407665716" opacity="0.6896994526199794" transform="matrix(0.9971907731921363,0.07490368389117724,-0.07490368389117724,0.9971907731921363,341.5232883740895,115.08110547460427)" fill="rgba(65, 135, 63, 0.50)" filter="url(#bbburst-blur-1)"></use><use xlink:href="#bbburst-shape-14" width="44.10991405526913" opacity="-0.08107690323249495" transform="matrix(1.748376408386602,0.0753653408216631,-0.0753653408216631,1.748376408386602,729.3305057548145,49.22394455387564)" fill="none" stroke="rgba(65, 135, 63, 0.50)" filter="url(#bbburst-blur-4)"></use><use xlink:href="#bbburst-shape-3" width="36.6724805647386" opacity="0.44442048648576515" transform="matrix(0.9909743449966975,-0.1340516600358475,0.1340516600358475,0.9909743449966975,124.16957699878245,150.75927752838987)" fill="rgba(65, 135, 63, 0.50)" filter="url(#bbburst-blur-2)"></use><use xlink:href="#bbburst-shape-14" width="24.461673535539546" opacity="0.5741736634659829" transform="matrix(0.7608089741089783,-0.648975889317349,0.648975889317349,0.7608089741089783,72.98546382743922,286.2278030766429)" fill="none" stroke="rgba(65, 135, 63, 0.50)" filter="url(#bbburst-blur-1)"></use><use xlink:href="#bbburst-shape-14" width="45.659586167134165" opacity="-0.07307921265406936" transform="matrix(1.3131797645312437,1.1567449615302707,-1.1567449615302707,1.3131797645312437,502.7038547967943,-504.18398971966405)" fill="none" stroke="rgba(65, 135, 63, 0.50)" filter="url(#bbburst-blur-4)"></use><use xlink:href="#bbburst-shape-10" width="36.33732023121102" opacity="0.366174150076085" transform="matrix(0.8982316123309779,-0.43952243470531943,0.43952243470531943,0.8982316123309779,240.94103463035378,-234.60515108779663)" fill="none" stroke="rgba(65, 135, 63, 0.50)" filter="url(#bbburst-blur-2)"></use><use xlink:href="#bbburst-shape-3" width="29.15528649959735" opacity="0.324902057422799" transform="matrix(1.1414743395676572,0.5094470846992659,-0.5094470846992659,1.1414743395676572,312.53634930335886,66.13481852149641)" fill="rgba(65, 135, 63, 0.50)" filter="url(#bbburst-blur-3)"></use><use xlink:href="#bbburst-shape-10" width="19.321062214710143" opacity="0.619110831876802" transform="matrix(0.9668496056454433,-0.2553465097925771,0.2553465097925771,0.9668496056454433,428.71826269843757,114.33099069353852)" fill="none" stroke="rgba(65, 135, 63, 0.50)" filter="url(#bbburst-blur-1)"></use><use xlink:href="#bbburst-shape-3" width="26.66795921001016" opacity="0.6781983639279812" transform="matrix(0.9139608125109098,0.4058024558752666,-0.4058024558752666,0.9139608125109098,405.8050433695711,41.85061767330495)" fill="rgba(65, 135, 63, 0.50)" filter="url(#bbburst-blur-1)"></use><use xlink:href="#bbburst-shape-14" width="24.06323616810395" opacity="0.6804466917283989" transform="matrix(0.9177557744400436,-0.39714523600561513,0.39714523600561513,0.9177557744400436,351.2880828696507,-39.71954169785329)" fill="none" stroke="rgba(65, 135, 63, 0.50)" filter="url(#bbburst-blur-1)"></use><use xlink:href="#bbburst-shape-3" width="33.04377460499496" opacity="0.2880297030576363" transform="matrix(1.019325156649083,-0.7235165685886691,0.7235165685886691,1.019325156649083,18.651302143061685,-307.17610796872145)" fill="rgba(65, 135, 63, 0.50)" filter="url(#bbburst-blur-3)"></use><use xlink:href="#bbburst-shape-3" width="34.37674457600198" opacity="0.33714801201614675" transform="matrix(0.9335696876830043,0.35839592385999275,-0.35839592385999275,0.9335696876830043,797.8363694265561,145.7569570830292)" fill="rgba(65, 135, 63, 0.50)" filter="url(#bbburst-blur-2)"></use><use xlink:href="#bbburst-shape-3" width="16.032580312830866" opacity="0.7986661378372893" transform="matrix(0.9038265607462317,-0.4278989928588736,0.4278989928588736,0.9038265607462317,132.79580350958724,23.679764140343764)" fill="rgba(65, 135, 63, 0.50)"></use><use xlink:href="#bbburst-shape-10" width="11.304101144422017" opacity="0.9419880436183843" transform="matrix(0.9705907901892973,-0.24073536923293076,0.24073536923293076,0.9705907901892973,318.7383470956819,-3.015349649493885)" fill="none" stroke="rgba(65, 135, 63, 0.50)"></use><use xlink:href="#bbburst-shape-14" width="25.06173427620036" opacity="0.4106502573141463" transform="matrix(0.9705503805827905,0.24089823318281214,-0.24089823318281214,0.9705503805827905,323.44677548744033,219.73667891441596)" fill="none" stroke="rgba(65, 135, 63, 0.50)" filter="url(#bbburst-blur-2)"></use><use xlink:href="#bbburst-shape-10" width="32.415686295772105" opacity="0.24707530602952665" transform="matrix(1.0796577393811588,-0.6299517170342228,0.6299517170342228,1.0796577393811588,-167.02071014518762,-183.71975860659222)" fill="none" stroke="rgba(65, 135, 63, 0.50)" filter="url(#bbburst-blur-3)"></use><use xlink:href="#bbburst-shape-5" width="23.887099954268404" opacity="0.7043305222472465" transform="matrix(0.9150921956610762,-0.4032446818498547,0.4032446818498547,0.9150921956610762,203.01551910614594,169.50695908776657)" fill="rgba(65, 135, 63, 0.50)" filter="url(#bbburst-blur-1)"></use><use xlink:href="#bbburst-shape-14" width="38.08529438019251" opacity="0.3958150778468914" transform="matrix(0.9129161259267837,-0.4081472124403557,0.4081472124403557,0.9129161259267837,350.7867341077965,-195.36442104847507)" fill="none" stroke="rgba(65, 135, 63, 0.50)" filter="url(#bbburst-blur-2)"></use><use xlink:href="#bbburst-shape-14" width="39.442185363048125" opacity="0.17689199890558216" transform="matrix(1.1703728179666102,0.4390073655018737,-0.4390073655018737,1.1703728179666102,807.2993997931189,-345.5782642302378)" fill="none" stroke="rgba(65, 135, 63, 0.50)" filter="url(#bbburst-blur-3)"></use><use xlink:href="#bbburst-shape-3" width="11.792579856918783" opacity="0.8154912357205376" transform="matrix(0.8663238753571983,0.4994826753613036,-0.4994826753613036,0.8663238753571983,593.9875541554918,133.52920174725932)" fill="rgba(65, 135, 63, 0.50)"></use><use xlink:href="#bbburst-shape-5" width="16.630304195967938" opacity="0.884713901950606" transform="matrix(0.8243601627882307,-0.5660656516763422,0.5660656516763422,0.8243601627882307,115.72037218008836,65.44771735774884)" fill="rgba(65, 135, 63, 0.50)"></use><use xlink:href="#bbburst-shape-1" width="15.100012088468233" opacity="0.9001844464502781" transform="matrix(0.9859159407967479,0.16724161468624776,-0.16724161468624776,0.9859159407967479,502.8508408907343,15.96079416070262)" fill="rgba(65, 135, 63, 0.50)"></use><use xlink:href="#bbburst-shape-10" width="12.462279248993877" opacity="0.8693605534152832" transform="matrix(0.9117585121098508,0.41072669209004553,-0.41072669209004553,0.9117585121098508,583.9441792521702,85.78583173404519)" fill="none" stroke="rgba(65, 135, 63, 0.50)"></use><use xlink:href="#bbburst-shape-1" width="31.032107829566403" opacity="0.06804717015974004" transform="matrix(1.4091401580781093,1.0377013129468426,-1.0377013129468426,1.4091401580781093,574.4764451787693,178.13947421189926)" fill="rgba(65, 135, 63, 0.50)" filter="url(#bbburst-blur-4)"></use><use xlink:href="#bbburst-shape-1" width="24.652441801524414" opacity="0.6776480283431402" transform="matrix(0.9998131557904595,-0.019330119200937093,0.019330119200937093,0.9998131557904595,332.32670687347235,-136.67517748803886)" fill="rgba(65, 135, 63, 0.50)" filter="url(#bbburst-blur-1)"></use><use xlink:href="#bbburst-shape-10" width="21.372526871389553" opacity="0.09949597368683905" transform="matrix(1.4968114905256515,-0.9066726872639194,0.9066726872639194,1.4968114905256515,-146.43216620131417,-557.9024948383383)" fill="none" stroke="rgba(65, 135, 63, 0.50)" filter="url(#bbburst-blur-4)"></use><use xlink:href="#bbburst-shape-10" width="20.88340247671991" opacity="0.5545298646318737" transform="matrix(0.9945903436057345,0.10387515779158654,-0.10387515779158654,0.9945903436057345,240.65810454833266,63.465269218874994)" fill="none" stroke="rgba(65, 135, 63, 0.50)" filter="url(#bbburst-blur-2)"></use><use xlink:href="#bbburst-shape-3" width="21.304684301571967" opacity="0.5214498242637791" transform="matrix(0.7276026933074549,0.6859987760132942,-0.6859987760132942,0.7276026933074549,685.4621957616372,-112.9233734933475)" fill="rgba(65, 135, 63, 0.50)" filter="url(#bbburst-blur-2)"></use><use xlink:href="#bbburst-shape-14" width="43.29451827635998" opacity="-0.07409702614035285" transform="matrix(1.7479103809631178,-0.08549444497374406,0.08549444497374406,1.7479103809631178,-8.126774156968793,50.15060623618763)" fill="none" stroke="rgba(65, 135, 63, 0.50)" filter="url(#bbburst-blur-4)"></use><use xlink:href="#bbburst-shape-14" width="31.86812753244221" opacity="0.3637806621038888" transform="matrix(0.7965414645878658,-0.6045839025248835,0.6045839025248835,0.7965414645878658,-76.77287488901004,-89.39704809070008)" fill="none" stroke="rgba(65, 135, 63, 0.50)" filter="url(#bbburst-blur-2)"></use><use xlink:href="#bbburst-shape-3" width="40.783740107967276" opacity="0.08682291834587597" transform="matrix(1.5109013134587326,-0.8829933300929723,0.8829933300929723,1.5109013134587326,238.78282474826142,158.92460156379195)" fill="rgba(65, 135, 63, 0.50)" filter="url(#bbburst-blur-4)"></use><use xlink:href="#bbburst-shape-14" width="14.645803654412292" opacity="0.865163119937678" transform="matrix(0.8402297072743491,0.5422306142349965,-0.5422306142349965,0.8402297072743491,561.4231645105422,95.3182034411904)" fill="none" stroke="rgba(65, 135, 63, 0.50)"></use><use xlink:href="#bbburst-shape-1" width="19.922303331474335" opacity="0.7946320836490404" transform="matrix(0.7924178544959591,0.6099786421474288,-0.6099786421474288,0.7924178544959591,564.7009172926909,18.280268266707424)" fill="rgba(65, 135, 63, 0.50)"></use><use xlink:href="#bbburst-shape-14" width="36.642135648524246" opacity="0.35922042413851873" transform="matrix(0.9923714128205917,-0.12328413935483655,0.12328413935483655,0.9923714128205917,546.5085108269789,-187.9056377836847)" fill="none" stroke="rgba(65, 135, 63, 0.50)" filter="url(#bbburst-blur-2)"></use><use xlink:href="#bbburst-shape-10" width="30.524229403416108" opacity="0.15437222232037062" transform="matrix(0.9879116986988618,0.7658527766966241,-0.7658527766966241,0.9879116986988618,427.4193838678821,-281.0634583189029)" fill="none" stroke="rgba(65, 135, 63, 0.50)" filter="url(#bbburst-blur-3)"></use><use xlink:href="#bbburst-shape-14" width="31.623580519991336" opacity="0.14880835606171106" transform="matrix(1.1342757422857832,0.5252794879509721,-0.5252794879509721,1.1342757422857832,948.9719533678531,77.3092605179969)" fill="none" stroke="rgba(65, 135, 63, 0.50)" filter="url(#bbburst-blur-3)"></use><use xlink:href="#bbburst-shape-5" width="28.907323176364457" opacity="0.47516927487448146" transform="matrix(0.7952697244624326,-0.6062557755217236,0.6062557755217236,0.7952697244624326,373.3423567328373,154.64656553914836)" fill="rgba(65, 135, 63, 0.50)" filter="url(#bbburst-blur-2)"></use></svg>